<svg version="1" xmlns="http://www.w3.org/2000/svg" width="682.667" height="682.667" viewBox="0 0 512.000000 512.000000"><path d="M334.3 46.1c-10.2 2-19.3 8.1-25.3 16.9l-4.1 6H161v149.8l-4.6 1.6c-7.5 2.5-14.4 7.6-19 13.8-5.7 7.8-7.8 14.3-7.7 24.3.1 13.9 6.3 25.3 17.5 32.6 7.9 5.1 12.4 6.3 22.8 6.3 7.5.1 9.3-.3 15.2-3.1 11.5-5.4 18.8-13.7 22.2-25.2 5.7-19.3-4-39.5-22.9-47.7l-6.5-2.8V85H301.7l1.2 6.7c3.4 18.4 17.9 31.6 36.4 33 16.9 1.3 31.4-7.5 39.1-23.6 2.8-6 3.1-7.5 3.1-16.1-.1-8.5-.4-10.2-3.2-16.2-8-17-26-26.3-44-22.7zm14.6 15.5c21.6 6.4 23 36.3 2.2 45.2-14.7 6.2-33.1-6.1-33.1-22.2 0-9.6 7.7-20.2 16.7-23 6.2-1.9 7.9-1.9 14.2 0z"/><path d="M243 139.5c-2.5.8-7 3.1-10 5.2-24.8 17.3-21.8 55.5 5.3 68.4 3.4 1.6 6.8 2.9 7.5 2.9.9 0 1.2 8.7 1.2 40 0 37.3-.1 40.1-1.7 40.6-11.7 3.8-20.8 11.6-26 22.2-2.5 5.1-2.7 6.8-2.8 16.2 0 9.7.2 11 3.1 17 3.9 8.3 11.1 15.5 19.4 19.4 5.9 2.8 7.4 3.1 16.6 3.1 9.6 0 10.3-.2 17.6-3.8 8.7-4.3 14.2-9.8 18.5-18.6 2.5-5.1 2.8-6.6 2.8-16.6 0-9.8-.3-11.6-2.7-16.7-3.6-7.8-10.6-15-18.1-18.7-3.4-1.6-7-3.2-7.9-3.5-1.7-.5-1.8-3.3-1.8-40.6 0-35.6.2-40 1.6-40 3.5 0 13.2-5.7 18.2-10.7 2.9-2.9 6.5-7.9 8-11 2.4-5.2 2.7-6.9 2.7-16.8 0-9.8-.3-11.6-2.7-16.7-3.7-8-10.7-15.2-18.6-19-5.8-2.9-7.7-3.3-16.1-3.5-6.3-.2-11.1.2-14.1 1.2zm21.8 15.1c7.3 3 13.5 11 14.8 19.2 1 6.4-1.9 14.6-7 19.6-12.2 12.2-31.8 8.5-38.9-7.3-6.8-15.5 4.7-33.1 21.6-33.1 3.2 0 7.4.7 9.5 1.6z"/><path d="M332.5 217.3c-20.3 5.3-33.3 25.2-29.6 45.3 2.4 13.2 9.7 23 21.4 28.9 3.8 1.9 7.6 3.5 8.3 3.5 1.2 0 1.4 10.3 1.4 62.5V420H208.3l-2.3-6.2c-1.8-4.9-3.7-7.7-8.9-12.9-8.9-8.9-15-11.3-28.2-11.4-9 0-9.9.2-17.1 3.8-34.7 17.1-27.2 68.1 11 74.8 12.6 2.2 27.1-2.8 35.6-12.2 4.2-4.7 5.7-7.2 9-15.2l1.5-3.7H350v-71c0-59.3.2-71 1.4-71 .7 0 4.5-1.6 8.3-3.5 8.6-4.3 14.4-10.3 18.6-19.3 2.9-6.1 3.2-7.6 3.2-16.3 0-9-.2-9.9-3.7-17.1-4.5-9-10.3-14.8-19.2-18.9-7.5-3.5-18.4-4.6-26.1-2.6zM177.3 406.6c5.7 1.9 13.1 9.5 14.6 15 4.5 16.2-6.6 31.4-22.9 31.4-16.1 0-27.4-15.7-22.8-31.4 1.5-5.1 9.9-13.7 14.8-15.3 5.1-1.6 11-1.5 16.3.3z"/></svg>